<svg width="170" height="49" viewBox="0 0 170 49" fill="none" xmlns="http://www.w3.org/2000/svg">
<path d="M0.0454545 48V1.45454H9.88636V39.8864H29.8409V48H0.0454545ZM75.0782 24.7273C75.0782 29.803 74.1161 34.1212 72.1918 37.6818C70.2827 41.2424 67.6767 43.9621 64.3736 45.8409C61.0858 47.7045 57.3888 48.6364 53.2827 48.6364C49.1464 48.6364 45.4342 47.697 42.1464 45.8182C38.8585 43.9394 36.26 41.2197 34.3509 37.6591C32.4418 34.0985 31.4873 29.7879 31.4873 24.7273C31.4873 19.6515 32.4418 15.3333 34.3509 11.7727C36.26 8.21212 38.8585 5.5 42.1464 3.63636C45.4342 1.75757 49.1464 0.81818 53.2827 0.81818C57.3888 0.81818 61.0858 1.75757 64.3736 3.63636C67.6767 5.5 70.2827 8.21212 72.1918 11.7727C74.1161 15.3333 75.0782 19.6515 75.0782 24.7273ZM65.1009 24.7273C65.1009 21.4394 64.6085 18.6667 63.6236 16.4091C62.6539 14.1515 61.2827 12.4394 59.51 11.2727C57.7373 10.1061 55.6615 9.52273 53.2827 9.52273C50.9039 9.52273 48.8282 10.1061 47.0555 11.2727C45.2827 12.4394 43.9039 14.1515 42.9191 16.4091C41.9494 18.6667 41.4645 21.4394 41.4645 24.7273C41.4645 28.0152 41.9494 30.7879 42.9191 33.0455C43.9039 35.303 45.2827 37.0152 47.0555 38.1818C48.8282 39.3485 50.9039 39.9318 53.2827 39.9318C55.6615 39.9318 57.7373 39.3485 59.51 38.1818C61.2827 37.0152 62.6539 35.303 63.6236 33.0455C64.6085 30.7879 65.1009 28.0152 65.1009 24.7273ZM110.992 16.5C110.673 15.3939 110.226 14.4167 109.651 13.5682C109.075 12.7045 108.37 11.9773 107.537 11.3864C106.719 10.7803 105.779 10.3182 104.719 10C103.673 9.68182 102.514 9.52273 101.242 9.52273C98.8628 9.52273 96.7719 10.1136 94.9689 11.2955C93.181 12.4773 91.787 14.197 90.787 16.4545C89.787 18.697 89.287 21.4394 89.287 24.6818C89.287 27.9242 89.7795 30.6818 90.7643 32.9545C91.7492 35.2273 93.1431 36.9621 94.9461 38.1591C96.7492 39.3409 98.878 39.9318 101.332 39.9318C103.56 39.9318 105.461 39.5379 107.037 38.75C108.628 37.947 109.84 36.8182 110.673 35.3636C111.522 33.9091 111.946 32.1894 111.946 30.2045L113.946 30.5H101.946V23.0909H121.423V28.9545C121.423 33.0455 120.56 36.5606 118.832 39.5C117.105 42.4242 114.726 44.6818 111.696 46.2727C108.666 47.8485 105.196 48.6364 101.287 48.6364C96.9234 48.6364 93.0901 47.6742 89.787 45.75C86.484 43.8106 83.9083 41.0606 82.0598 37.5C80.2264 33.9242 79.3098 29.6818 79.3098 24.7727C79.3098 21 79.8552 17.6364 80.9461 14.6818C82.0522 11.7121 83.5976 9.19697 85.5825 7.13636C87.5673 5.07576 89.878 3.50757 92.5143 2.43182C95.1507 1.35606 98.0067 0.81818 101.082 0.81818C103.719 0.81818 106.173 1.20454 108.446 1.97727C110.719 2.73485 112.734 3.81061 114.492 5.20454C116.264 6.59848 117.711 8.25757 118.832 10.1818C119.954 12.0909 120.673 14.197 120.992 16.5H110.992ZM169.348 24.7273C169.348 29.803 168.386 34.1212 166.462 37.6818C164.553 41.2424 161.947 43.9621 158.644 45.8409C155.356 47.7045 151.659 48.6364 147.553 48.6364C143.416 48.6364 139.704 47.697 136.416 45.8182C133.128 43.9394 130.53 41.2197 128.621 37.6591C126.712 34.0985 125.757 29.7879 125.757 24.7273C125.757 19.6515 126.712 15.3333 128.621 11.7727C130.53 8.21212 133.128 5.5 136.416 3.63636C139.704 1.75757 143.416 0.81818 147.553 0.81818C151.659 0.81818 155.356 1.75757 158.644 3.63636C161.947 5.5 164.553 8.21212 166.462 11.7727C168.386 15.3333 169.348 19.6515 169.348 24.7273ZM159.371 24.7273C159.371 21.4394 158.878 18.6667 157.894 16.4091C156.924 14.1515 155.553 12.4394 153.78 11.2727C152.007 10.1061 149.932 9.52273 147.553 9.52273C145.174 9.52273 143.098 10.1061 141.325 11.2727C139.553 12.4394 138.174 14.1515 137.189 16.4091C136.219 18.6667 135.735 21.4394 135.735 24.7273C135.735 28.0152 136.219 30.7879 137.189 33.0455C138.174 35.303 139.553 37.0152 141.325 38.1818C143.098 39.3485 145.174 39.9318 147.553 39.9318C149.932 39.9318 152.007 39.3485 153.78 38.1818C155.553 37.0152 156.924 35.303 157.894 33.0455C158.878 30.7879 159.371 28.0152 159.371 24.7273Z" fill="black"/>
</svg>
